<?xml version="1.0" standalone="no"?>
<!DOCTYPE svg PUBLIC "-//W3C//DTD SVG 20010904//EN"
 "http://www.w3.org/TR/2001/REC-SVG-20010904/DTD/svg10.dtd">
<svg version="1.0" xmlns="http://www.w3.org/2000/svg"
 width="1452.000000pt" height="1436.000000pt" viewBox="0 0 1452.000000 1436.000000"
 preserveAspectRatio="xMidYMid meet">

<g transform="translate(0.000000,1436.000000) scale(0.100000,-0.100000)"
fill="#333333" stroke="none" opacity="0.3">
<path d="M6960 14093 c-542 -29 -1022 -105 -1496 -234 -174 -47 -475 -145
-621 -201 l-103 -39 0 -3297 c0 -2127 4 -3329 10 -3387 54 -484 245 -946 547
-1320 105 -130 321 -340 448 -436 300 -224 652 -385 1005 -458 332 -69 717
-69 1050 -1 589 122 1134 470 1504 960 64 86 186 272 186 285 0 3 -531 5
-1180 5 l-1180 0 0 845 0 845 2174 0 2174 0 6 -23 c3 -12 10 -115 17 -228 22
-418 -24 -861 -136 -1287 -398 -1513 -1636 -2704 -3165 -3046 -522 -116 -1093
-132 -1615 -45 -1072 178 -2033 762 -2691 1634 -506 670 -794 1462 -844 2316
-6 109 -10 1200 -10 2917 0 1508 -3 2742 -6 2742 -3 0 -54 -39 -112 -87 -527
-433 -982 -929 -1356 -1480 -1556 -2291 -1584 -5318 -68 -7633 271 -414 561
-771 912 -1120 1468 -1463 3498 -2183 5565 -1975 2612 264 4848 1995 5768
4465 562 1510 569 3214 20 4734 -901 2494 -3157 4256 -5788 4520 -306 31 -750
44 -1015 29z m685 -2674 c504 -41 1047 -194 1509 -426 186 -93 268 -141 461
-269 619 -410 1112 -968 1445 -1635 87 -176 200 -439 200 -468 0 -8 -259 -11
-933 -11 l-933 0 -84 113 c-99 132 -307 349 -435 452 -317 258 -712 443 -1107
520 -178 34 -294 45 -493 45 -199 0 -315 -11 -493 -45 -351 -68 -702 -221
-995 -434 -54 -39 -100 -71 -102 -71 -3 0 -5 434 -5 965 l0 966 48 20 c26 11
99 38 162 60 563 196 1147 268 1755 218z"/>
</g>
</svg>
