<svg width="272" height="152" viewBox="0 0 272 152" fill="none" xmlns="http://www.w3.org/2000/svg">
<g opacity="0.5">
<circle cx="271" cy="71" r="1" transform="rotate(-180 271 71)" fill="#F63A1A"/>
<circle cx="271" cy="31" r="1" transform="rotate(-180 271 31)" fill="#F63A1A"/>
<circle cx="111" cy="71" r="1" transform="rotate(-180 111 71)" fill="#F63A1A"/>
<circle cx="111" cy="31" r="1" transform="rotate(-180 111 31)" fill="#F63A1A"/>
<circle cx="191" cy="71" r="1" transform="rotate(-180 191 71)" fill="#F63A1A"/>
<circle cx="191" cy="31" r="1" transform="rotate(-180 191 31)" fill="#F63A1A"/>
<circle cx="31" cy="71" r="1" transform="rotate(-180 31 71)" fill="#F63A1A"/>
<circle cx="31" cy="31" r="1" transform="rotate(-180 31 31)" fill="#F63A1A"/>
<circle cx="231" cy="71" r="1" transform="rotate(-180 231 71)" fill="#F63A1A"/>
<circle cx="231" cy="31" r="1" transform="rotate(-180 231 31)" fill="#F63A1A"/>
<circle cx="71" cy="71" r="1" transform="rotate(-180 71 71)" fill="#F63A1A"/>
<circle cx="71" cy="31" r="1" transform="rotate(-180 71 31)" fill="#F63A1A"/>
<circle cx="151" cy="71" r="1" transform="rotate(-180 151 71)" fill="#F63A1A"/>
<circle cx="151" cy="31" r="1" transform="rotate(-180 151 31)" fill="#F63A1A"/>
<circle cx="251" cy="71" r="1" transform="rotate(-180 251 71)" fill="#F63A1A"/>
<circle cx="251" cy="31" r="1" transform="rotate(-180 251 31)" fill="#F63A1A"/>
<circle cx="91" cy="71" r="1" transform="rotate(-180 91 71)" fill="#F63A1A"/>
<circle cx="91" cy="31" r="1" transform="rotate(-180 91 31)" fill="#F63A1A"/>
<circle cx="171" cy="71" r="1" transform="rotate(-180 171 71)" fill="#F63A1A"/>
<circle cx="171" cy="31" r="1" transform="rotate(-180 171 31)" fill="#F63A1A"/>
<circle cx="11" cy="71" r="1" transform="rotate(-180 11 71)" fill="#F63A1A"/>
<circle cx="11" cy="31" r="1" transform="rotate(-180 11 31)" fill="#F63A1A"/>
<circle cx="211" cy="71" r="1" transform="rotate(-180 211 71)" fill="#F63A1A"/>
<circle cx="211" cy="31" r="1" transform="rotate(-180 211 31)" fill="#F63A1A"/>
<circle cx="51" cy="71" r="1" transform="rotate(-180 51 71)" fill="#F63A1A"/>
<circle cx="51" cy="31" r="1" transform="rotate(-180 51 31)" fill="#F63A1A"/>
<circle cx="131" cy="71" r="1" transform="rotate(-180 131 71)" fill="#F63A1A"/>
<circle cx="131" cy="31" r="1" transform="rotate(-180 131 31)" fill="#F63A1A"/>
<circle cx="261" cy="71" r="1" transform="rotate(-180 261 71)" fill="#F63A1A"/>
<circle cx="261" cy="31" r="1" transform="rotate(-180 261 31)" fill="#F63A1A"/>
<circle cx="101" cy="71" r="1" transform="rotate(-180 101 71)" fill="#F63A1A"/>
<circle cx="101" cy="31" r="1" transform="rotate(-180 101 31)" fill="#F63A1A"/>
<circle cx="181" cy="71" r="1" transform="rotate(-180 181 71)" fill="#F63A1A"/>
<circle cx="181" cy="31" r="1" transform="rotate(-180 181 31)" fill="#F63A1A"/>
<circle cx="21" cy="71" r="1" transform="rotate(-180 21 71)" fill="#F63A1A"/>
<circle cx="21" cy="31" r="1" transform="rotate(-180 21 31)" fill="#F63A1A"/>
<circle cx="221" cy="71" r="1" transform="rotate(-180 221 71)" fill="#F63A1A"/>
<circle cx="221" cy="31" r="1" transform="rotate(-180 221 31)" fill="#F63A1A"/>
<circle cx="61" cy="71" r="1" transform="rotate(-180 61 71)" fill="#F63A1A"/>
<circle cx="61" cy="31" r="1" transform="rotate(-180 61 31)" fill="#F63A1A"/>
<circle cx="141" cy="71" r="1" transform="rotate(-180 141 71)" fill="#F63A1A"/>
<circle cx="141" cy="31" r="1" transform="rotate(-180 141 31)" fill="#F63A1A"/>
<circle cx="241" cy="71" r="1" transform="rotate(-180 241 71)" fill="#F63A1A"/>
<circle cx="241" cy="31" r="1" transform="rotate(-180 241 31)" fill="#F63A1A"/>
<circle cx="81" cy="71" r="1" transform="rotate(-180 81 71)" fill="#F63A1A"/>
<circle cx="81" cy="31" r="1" transform="rotate(-180 81 31)" fill="#F63A1A"/>
<circle cx="161" cy="71" r="1" transform="rotate(-180 161 71)" fill="#F63A1A"/>
<circle cx="161" cy="31" r="1" transform="rotate(-180 161 31)" fill="#F63A1A"/>
<circle cx="1" cy="71" r="1" transform="rotate(-180 1 71)" fill="#F63A1A"/>
<circle cx="1" cy="31" r="1" transform="rotate(-180 1 31)" fill="#F63A1A"/>
<circle cx="201" cy="71" r="1" transform="rotate(-180 201 71)" fill="#F63A1A"/>
<circle cx="201" cy="31" r="1" transform="rotate(-180 201 31)" fill="#F63A1A"/>
<circle cx="41" cy="71" r="1" transform="rotate(-180 41 71)" fill="#F63A1A"/>
<circle cx="41" cy="31" r="1" transform="rotate(-180 41 31)" fill="#F63A1A"/>
<circle cx="121" cy="71" r="1" transform="rotate(-180 121 71)" fill="#F63A1A"/>
<circle cx="121" cy="31" r="1" transform="rotate(-180 121 31)" fill="#F63A1A"/>
<circle cx="271" cy="61" r="1" transform="rotate(-180 271 61)" fill="#F63A1A"/>
<circle cx="271" cy="21" r="1" transform="rotate(-180 271 21)" fill="#F63A1A"/>
<circle cx="111" cy="61" r="1" transform="rotate(-180 111 61)" fill="#F63A1A"/>
<circle cx="111" cy="21" r="1" transform="rotate(-180 111 21)" fill="#F63A1A"/>
<circle cx="191" cy="61" r="1" transform="rotate(-180 191 61)" fill="#F63A1A"/>
<circle cx="191" cy="21" r="1" transform="rotate(-180 191 21)" fill="#F63A1A"/>
<circle cx="31" cy="61" r="1" transform="rotate(-180 31 61)" fill="#F63A1A"/>
<circle cx="31" cy="21" r="1" transform="rotate(-180 31 21)" fill="#F63A1A"/>
<circle cx="231" cy="61" r="1" transform="rotate(-180 231 61)" fill="#F63A1A"/>
<circle cx="231" cy="21" r="1" transform="rotate(-180 231 21)" fill="#F63A1A"/>
<circle cx="71" cy="61" r="1" transform="rotate(-180 71 61)" fill="#F63A1A"/>
<circle cx="71" cy="21" r="1" transform="rotate(-180 71 21)" fill="#F63A1A"/>
<circle cx="151" cy="61" r="1" transform="rotate(-180 151 61)" fill="#F63A1A"/>
<circle cx="151" cy="21" r="1" transform="rotate(-180 151 21)" fill="#F63A1A"/>
<circle cx="251" cy="61" r="1" transform="rotate(-180 251 61)" fill="#F63A1A"/>
<circle cx="251" cy="21" r="1" transform="rotate(-180 251 21)" fill="#F63A1A"/>
<circle cx="91" cy="61" r="1" transform="rotate(-180 91 61)" fill="#F63A1A"/>
<circle cx="91" cy="21" r="1" transform="rotate(-180 91 21)" fill="#F63A1A"/>
<circle cx="171" cy="61" r="1" transform="rotate(-180 171 61)" fill="#F63A1A"/>
<circle cx="171" cy="21" r="1" transform="rotate(-180 171 21)" fill="#F63A1A"/>
<circle cx="11" cy="61" r="1" transform="rotate(-180 11 61)" fill="#F63A1A"/>
<circle cx="11" cy="21" r="1" transform="rotate(-180 11 21)" fill="#F63A1A"/>
<circle cx="211" cy="61" r="1" transform="rotate(-180 211 61)" fill="#F63A1A"/>
<circle cx="211" cy="21" r="1" transform="rotate(-180 211 21)" fill="#F63A1A"/>
<circle cx="51" cy="61" r="1" transform="rotate(-180 51 61)" fill="#F63A1A"/>
<circle cx="51" cy="21" r="1" transform="rotate(-180 51 21)" fill="#F63A1A"/>
<circle cx="131" cy="61" r="1" transform="rotate(-180 131 61)" fill="#F63A1A"/>
<circle cx="131" cy="21" r="1" transform="rotate(-180 131 21)" fill="#F63A1A"/>
<circle cx="261" cy="61" r="1" transform="rotate(-180 261 61)" fill="#F63A1A"/>
<circle cx="261" cy="21" r="1" transform="rotate(-180 261 21)" fill="#F63A1A"/>
<circle cx="101" cy="61" r="1" transform="rotate(-180 101 61)" fill="#F63A1A"/>
<circle cx="101" cy="21" r="1" transform="rotate(-180 101 21)" fill="#F63A1A"/>
<circle cx="181" cy="61" r="1" transform="rotate(-180 181 61)" fill="#F63A1A"/>
<circle cx="181" cy="21" r="1" transform="rotate(-180 181 21)" fill="#F63A1A"/>
<circle cx="21" cy="61" r="1" transform="rotate(-180 21 61)" fill="#F63A1A"/>
<circle cx="21" cy="21" r="1" transform="rotate(-180 21 21)" fill="#F63A1A"/>
<circle cx="221" cy="61" r="1" transform="rotate(-180 221 61)" fill="#F63A1A"/>
<circle cx="221" cy="21" r="1" transform="rotate(-180 221 21)" fill="#F63A1A"/>
<circle cx="61" cy="61" r="1" transform="rotate(-180 61 61)" fill="#F63A1A"/>
<circle cx="61" cy="21" r="1" transform="rotate(-180 61 21)" fill="#F63A1A"/>
<circle cx="141" cy="61" r="1" transform="rotate(-180 141 61)" fill="#F63A1A"/>
<circle cx="141" cy="21" r="1" transform="rotate(-180 141 21)" fill="#F63A1A"/>
<circle cx="241" cy="61" r="1" transform="rotate(-180 241 61)" fill="#F63A1A"/>
<circle cx="241" cy="21" r="1" transform="rotate(-180 241 21)" fill="#F63A1A"/>
<circle cx="81" cy="61" r="1" transform="rotate(-180 81 61)" fill="#F63A1A"/>
<circle cx="81" cy="21" r="1" transform="rotate(-180 81 21)" fill="#F63A1A"/>
<circle cx="161" cy="61" r="1" transform="rotate(-180 161 61)" fill="#F63A1A"/>
<circle cx="161" cy="21" r="1" transform="rotate(-180 161 21)" fill="#F63A1A"/>
<circle cx="1" cy="61" r="1" transform="rotate(-180 1 61)" fill="#F63A1A"/>
<circle cx="1" cy="21" r="1" transform="rotate(-180 1 21)" fill="#F63A1A"/>
<circle cx="201" cy="61" r="1" transform="rotate(-180 201 61)" fill="#F63A1A"/>
<circle cx="201" cy="21" r="1" transform="rotate(-180 201 21)" fill="#F63A1A"/>
<circle cx="41" cy="61" r="1" transform="rotate(-180 41 61)" fill="#F63A1A"/>
<circle cx="41" cy="21" r="1" transform="rotate(-180 41 21)" fill="#F63A1A"/>
<circle cx="121" cy="61" r="1" transform="rotate(-180 121 61)" fill="#F63A1A"/>
<circle cx="121" cy="21" r="1" transform="rotate(-180 121 21)" fill="#F63A1A"/>
<circle cx="271" cy="51" r="1" transform="rotate(-180 271 51)" fill="#F63A1A"/>
<circle cx="271" cy="11" r="1" transform="rotate(-180 271 11)" fill="#F63A1A"/>
<circle cx="111" cy="51" r="1" transform="rotate(-180 111 51)" fill="#F63A1A"/>
<circle cx="111" cy="11" r="1" transform="rotate(-180 111 11)" fill="#F63A1A"/>
<circle cx="191" cy="51" r="1" transform="rotate(-180 191 51)" fill="#F63A1A"/>
<circle cx="191" cy="11" r="1" transform="rotate(-180 191 11)" fill="#F63A1A"/>
<circle cx="31" cy="51" r="1" transform="rotate(-180 31 51)" fill="#F63A1A"/>
<circle cx="31" cy="11" r="1" transform="rotate(-180 31 11)" fill="#F63A1A"/>
<circle cx="231" cy="51" r="1" transform="rotate(-180 231 51)" fill="#F63A1A"/>
<circle cx="231" cy="11" r="1" transform="rotate(-180 231 11)" fill="#F63A1A"/>
<circle cx="71" cy="51" r="1" transform="rotate(-180 71 51)" fill="#F63A1A"/>
<circle cx="71" cy="11" r="1" transform="rotate(-180 71 11)" fill="#F63A1A"/>
<circle cx="151" cy="51" r="1" transform="rotate(-180 151 51)" fill="#F63A1A"/>
<circle cx="151" cy="11" r="1" transform="rotate(-180 151 11)" fill="#F63A1A"/>
<circle cx="251" cy="51" r="1" transform="rotate(-180 251 51)" fill="#F63A1A"/>
<circle cx="251" cy="11" r="1" transform="rotate(-180 251 11)" fill="#F63A1A"/>
<circle cx="91" cy="51" r="1" transform="rotate(-180 91 51)" fill="#F63A1A"/>
<circle cx="91" cy="11" r="1" transform="rotate(-180 91 11)" fill="#F63A1A"/>
<circle cx="171" cy="51" r="1" transform="rotate(-180 171 51)" fill="#F63A1A"/>
<circle cx="171" cy="11" r="1" transform="rotate(-180 171 11)" fill="#F63A1A"/>
<circle cx="11" cy="51" r="1" transform="rotate(-180 11 51)" fill="#F63A1A"/>
<circle cx="11" cy="11" r="1" transform="rotate(-180 11 11)" fill="#F63A1A"/>
<circle cx="211" cy="51" r="1" transform="rotate(-180 211 51)" fill="#F63A1A"/>
<circle cx="211" cy="11" r="1" transform="rotate(-180 211 11)" fill="#F63A1A"/>
<circle cx="51" cy="51" r="1" transform="rotate(-180 51 51)" fill="#F63A1A"/>
<circle cx="51" cy="11" r="1" transform="rotate(-180 51 11)" fill="#F63A1A"/>
<circle cx="131" cy="51" r="1" transform="rotate(-180 131 51)" fill="#F63A1A"/>
<circle cx="131" cy="11" r="1" transform="rotate(-180 131 11)" fill="#F63A1A"/>
<circle cx="261" cy="51" r="1" transform="rotate(-180 261 51)" fill="#F63A1A"/>
<circle cx="261" cy="11" r="1" transform="rotate(-180 261 11)" fill="#F63A1A"/>
<circle cx="101" cy="51" r="1" transform="rotate(-180 101 51)" fill="#F63A1A"/>
<circle cx="101" cy="11" r="1" transform="rotate(-180 101 11)" fill="#F63A1A"/>
<circle cx="181" cy="51" r="1" transform="rotate(-180 181 51)" fill="#F63A1A"/>
<circle cx="181" cy="11" r="1" transform="rotate(-180 181 11)" fill="#F63A1A"/>
<circle cx="21" cy="51" r="1" transform="rotate(-180 21 51)" fill="#F63A1A"/>
<circle cx="21" cy="11" r="1" transform="rotate(-180 21 11)" fill="#F63A1A"/>
<circle cx="221" cy="51" r="1" transform="rotate(-180 221 51)" fill="#F63A1A"/>
<circle cx="221" cy="11" r="1" transform="rotate(-180 221 11)" fill="#F63A1A"/>
<circle cx="61" cy="51" r="1" transform="rotate(-180 61 51)" fill="#F63A1A"/>
<circle cx="61" cy="11" r="1" transform="rotate(-180 61 11)" fill="#F63A1A"/>
<circle cx="141" cy="51" r="1" transform="rotate(-180 141 51)" fill="#F63A1A"/>
<circle cx="141" cy="11" r="1" transform="rotate(-180 141 11)" fill="#F63A1A"/>
<circle cx="241" cy="51" r="1" transform="rotate(-180 241 51)" fill="#F63A1A"/>
<circle cx="241" cy="11" r="1" transform="rotate(-180 241 11)" fill="#F63A1A"/>
<circle cx="81" cy="51" r="1" transform="rotate(-180 81 51)" fill="#F63A1A"/>
<circle cx="81" cy="11" r="1" transform="rotate(-180 81 11)" fill="#F63A1A"/>
<circle cx="161" cy="51" r="1" transform="rotate(-180 161 51)" fill="#F63A1A"/>
<circle cx="161" cy="11" r="1" transform="rotate(-180 161 11)" fill="#F63A1A"/>
<circle cx="1" cy="51" r="1" transform="rotate(-180 1 51)" fill="#F63A1A"/>
<circle cx="1" cy="11" r="1" transform="rotate(-180 1 11)" fill="#F63A1A"/>
<circle cx="201" cy="51" r="1" transform="rotate(-180 201 51)" fill="#F63A1A"/>
<circle cx="201" cy="11" r="1" transform="rotate(-180 201 11)" fill="#F63A1A"/>
<circle cx="41" cy="51" r="1" transform="rotate(-180 41 51)" fill="#F63A1A"/>
<circle cx="41" cy="11" r="1" transform="rotate(-180 41 11)" fill="#F63A1A"/>
<circle cx="121" cy="51" r="1" transform="rotate(-180 121 51)" fill="#F63A1A"/>
<circle cx="121" cy="11" r="1" transform="rotate(-180 121 11)" fill="#F63A1A"/>
<circle cx="271" cy="41" r="1" transform="rotate(-180 271 41)" fill="#F63A1A"/>
<circle cx="271" cy="1" r="1" transform="rotate(-180 271 1)" fill="#F63A1A"/>
<circle cx="111" cy="41" r="1" transform="rotate(-180 111 41)" fill="#F63A1A"/>
<circle cx="111" cy="1" r="1" transform="rotate(-180 111 1)" fill="#F63A1A"/>
<circle cx="191" cy="41" r="1" transform="rotate(-180 191 41)" fill="#F63A1A"/>
<circle cx="191" cy="1" r="1" transform="rotate(-180 191 1)" fill="#F63A1A"/>
<circle cx="31" cy="41" r="1" transform="rotate(-180 31 41)" fill="#F63A1A"/>
<circle cx="31" cy="1" r="1" transform="rotate(-180 31 1)" fill="#F63A1A"/>
<circle cx="231" cy="41" r="1" transform="rotate(-180 231 41)" fill="#F63A1A"/>
<circle cx="231" cy="1" r="1" transform="rotate(-180 231 1)" fill="#F63A1A"/>
<circle cx="71" cy="41" r="1" transform="rotate(-180 71 41)" fill="#F63A1A"/>
<circle cx="71" cy="1" r="1" transform="rotate(-180 71 1)" fill="#F63A1A"/>
<circle cx="151" cy="41" r="1" transform="rotate(-180 151 41)" fill="#F63A1A"/>
<circle cx="151" cy="1" r="1" transform="rotate(-180 151 1)" fill="#F63A1A"/>
<circle cx="251" cy="41" r="1" transform="rotate(-180 251 41)" fill="#F63A1A"/>
<circle cx="251" cy="1" r="1" transform="rotate(-180 251 1)" fill="#F63A1A"/>
<circle cx="91" cy="41" r="1" transform="rotate(-180 91 41)" fill="#F63A1A"/>
<circle cx="91" cy="1" r="1" transform="rotate(-180 91 1)" fill="#F63A1A"/>
<circle cx="171" cy="41" r="1" transform="rotate(-180 171 41)" fill="#F63A1A"/>
<circle cx="171" cy="1" r="1" transform="rotate(-180 171 1)" fill="#F63A1A"/>
<circle cx="11" cy="41" r="1" transform="rotate(-180 11 41)" fill="#F63A1A"/>
<circle cx="11" cy="1" r="1" transform="rotate(-180 11 1)" fill="#F63A1A"/>
<circle cx="211" cy="41" r="1" transform="rotate(-180 211 41)" fill="#F63A1A"/>
<circle cx="211" cy="1" r="1" transform="rotate(-180 211 1)" fill="#F63A1A"/>
<circle cx="51" cy="41" r="1" transform="rotate(-180 51 41)" fill="#F63A1A"/>
<circle cx="51" cy="1" r="1" transform="rotate(-180 51 1)" fill="#F63A1A"/>
<circle cx="131" cy="41" r="1" transform="rotate(-180 131 41)" fill="#F63A1A"/>
<circle cx="131" cy="1" r="1" transform="rotate(-180 131 1)" fill="#F63A1A"/>
<circle cx="261" cy="41" r="1" transform="rotate(-180 261 41)" fill="#F63A1A"/>
<circle cx="261" cy="1" r="1" transform="rotate(-180 261 1)" fill="#F63A1A"/>
<circle cx="101" cy="41" r="1" transform="rotate(-180 101 41)" fill="#F63A1A"/>
<circle cx="101" cy="1" r="1" transform="rotate(-180 101 1)" fill="#F63A1A"/>
<circle cx="181" cy="41" r="1" transform="rotate(-180 181 41)" fill="#F63A1A"/>
<circle cx="181" cy="1" r="1" transform="rotate(-180 181 1)" fill="#F63A1A"/>
<circle cx="21" cy="41" r="1" transform="rotate(-180 21 41)" fill="#F63A1A"/>
<circle cx="21" cy="1" r="1" transform="rotate(-180 21 1)" fill="#F63A1A"/>
<circle cx="221" cy="41" r="1" transform="rotate(-180 221 41)" fill="#F63A1A"/>
<circle cx="221" cy="1" r="1" transform="rotate(-180 221 1)" fill="#F63A1A"/>
<circle cx="61" cy="41" r="1" transform="rotate(-180 61 41)" fill="#F63A1A"/>
<circle cx="61" cy="1" r="1" transform="rotate(-180 61 1)" fill="#F63A1A"/>
<circle cx="141" cy="41" r="1" transform="rotate(-180 141 41)" fill="#F63A1A"/>
<circle cx="141" cy="1" r="1" transform="rotate(-180 141 1)" fill="#F63A1A"/>
<circle cx="241" cy="41" r="1" transform="rotate(-180 241 41)" fill="#F63A1A"/>
<circle cx="241" cy="1" r="1" transform="rotate(-180 241 1)" fill="#F63A1A"/>
<circle cx="81" cy="41" r="1" transform="rotate(-180 81 41)" fill="#F63A1A"/>
<circle cx="81" cy="1" r="1" transform="rotate(-180 81 1)" fill="#F63A1A"/>
<circle cx="161" cy="41" r="1" transform="rotate(-180 161 41)" fill="#F63A1A"/>
<circle cx="161" cy="1" r="1" transform="rotate(-180 161 1)" fill="#F63A1A"/>
<circle cx="1" cy="41" r="1" transform="rotate(-180 1 41)" fill="#F63A1A"/>
<circle cx="1" cy="1" r="1" transform="rotate(-180 1 1)" fill="#F63A1A"/>
<circle cx="201" cy="41" r="1" transform="rotate(-180 201 41)" fill="#F63A1A"/>
<circle cx="201" cy="1" r="1" transform="rotate(-180 201 1)" fill="#F63A1A"/>
<circle cx="41" cy="41" r="1" transform="rotate(-180 41 41)" fill="#F63A1A"/>
<circle cx="41" cy="1" r="1" transform="rotate(-180 41 1)" fill="#F63A1A"/>
<circle cx="121" cy="41" r="1" transform="rotate(-180 121 41)" fill="#F63A1A"/>
<circle cx="121" cy="1" r="1" transform="rotate(-180 121 1)" fill="#F63A1A"/>
<circle cx="271" cy="151" r="1" transform="rotate(-180 271 151)" fill="#F63A1A"/>
<circle cx="271" cy="111" r="1" transform="rotate(-180 271 111)" fill="#F63A1A"/>
<circle cx="111" cy="151" r="1" transform="rotate(-180 111 151)" fill="#F63A1A"/>
<circle cx="111" cy="111" r="1" transform="rotate(-180 111 111)" fill="#F63A1A"/>
<circle cx="191" cy="151" r="1" transform="rotate(-180 191 151)" fill="#F63A1A"/>
<circle cx="191" cy="111" r="1" transform="rotate(-180 191 111)" fill="#F63A1A"/>
<circle cx="31" cy="151" r="1" transform="rotate(-180 31 151)" fill="#F63A1A"/>
<circle cx="31" cy="111" r="1" transform="rotate(-180 31 111)" fill="#F63A1A"/>
<circle cx="231" cy="151" r="1" transform="rotate(-180 231 151)" fill="#F63A1A"/>
<circle cx="231" cy="111" r="1" transform="rotate(-180 231 111)" fill="#F63A1A"/>
<circle cx="71" cy="151" r="1" transform="rotate(-180 71 151)" fill="#F63A1A"/>
<circle cx="71" cy="111" r="1" transform="rotate(-180 71 111)" fill="#F63A1A"/>
<circle cx="151" cy="151" r="1" transform="rotate(-180 151 151)" fill="#F63A1A"/>
<circle cx="151" cy="111" r="1" transform="rotate(-180 151 111)" fill="#F63A1A"/>
<circle cx="251" cy="151" r="1" transform="rotate(-180 251 151)" fill="#F63A1A"/>
<circle cx="251" cy="111" r="1" transform="rotate(-180 251 111)" fill="#F63A1A"/>
<circle cx="91" cy="151" r="1" transform="rotate(-180 91 151)" fill="#F63A1A"/>
<circle cx="91" cy="111" r="1" transform="rotate(-180 91 111)" fill="#F63A1A"/>
<circle cx="171" cy="151" r="1" transform="rotate(-180 171 151)" fill="#F63A1A"/>
<circle cx="171" cy="111" r="1" transform="rotate(-180 171 111)" fill="#F63A1A"/>
<circle cx="11" cy="151" r="1" transform="rotate(-180 11 151)" fill="#F63A1A"/>
<circle cx="11" cy="111" r="1" transform="rotate(-180 11 111)" fill="#F63A1A"/>
<circle cx="211" cy="151" r="1" transform="rotate(-180 211 151)" fill="#F63A1A"/>
<circle cx="211" cy="111" r="1" transform="rotate(-180 211 111)" fill="#F63A1A"/>
<circle cx="51" cy="151" r="1" transform="rotate(-180 51 151)" fill="#F63A1A"/>
<circle cx="51" cy="111" r="1" transform="rotate(-180 51 111)" fill="#F63A1A"/>
<circle cx="131" cy="151" r="1" transform="rotate(-180 131 151)" fill="#F63A1A"/>
<circle cx="131" cy="111" r="1" transform="rotate(-180 131 111)" fill="#F63A1A"/>
<circle cx="261" cy="151" r="1" transform="rotate(-180 261 151)" fill="#F63A1A"/>
<circle cx="261" cy="111" r="1" transform="rotate(-180 261 111)" fill="#F63A1A"/>
<circle cx="101" cy="151" r="1" transform="rotate(-180 101 151)" fill="#F63A1A"/>
<circle cx="101" cy="111" r="1" transform="rotate(-180 101 111)" fill="#F63A1A"/>
<circle cx="181" cy="151" r="1" transform="rotate(-180 181 151)" fill="#F63A1A"/>
<circle cx="181" cy="111" r="1" transform="rotate(-180 181 111)" fill="#F63A1A"/>
<circle cx="21" cy="151" r="1" transform="rotate(-180 21 151)" fill="#F63A1A"/>
<circle cx="21" cy="111" r="1" transform="rotate(-180 21 111)" fill="#F63A1A"/>
<circle cx="221" cy="151" r="1" transform="rotate(-180 221 151)" fill="#F63A1A"/>
<circle cx="221" cy="111" r="1" transform="rotate(-180 221 111)" fill="#F63A1A"/>
<circle cx="61" cy="151" r="1" transform="rotate(-180 61 151)" fill="#F63A1A"/>
<circle cx="61" cy="111" r="1" transform="rotate(-180 61 111)" fill="#F63A1A"/>
<circle cx="141" cy="151" r="1" transform="rotate(-180 141 151)" fill="#F63A1A"/>
<circle cx="141" cy="111" r="1" transform="rotate(-180 141 111)" fill="#F63A1A"/>
<circle cx="241" cy="151" r="1" transform="rotate(-180 241 151)" fill="#F63A1A"/>
<circle cx="241" cy="111" r="1" transform="rotate(-180 241 111)" fill="#F63A1A"/>
<circle cx="81" cy="151" r="1" transform="rotate(-180 81 151)" fill="#F63A1A"/>
<circle cx="81" cy="111" r="1" transform="rotate(-180 81 111)" fill="#F63A1A"/>
<circle cx="161" cy="151" r="1" transform="rotate(-180 161 151)" fill="#F63A1A"/>
<circle cx="161" cy="111" r="1" transform="rotate(-180 161 111)" fill="#F63A1A"/>
<circle cx="1" cy="151" r="1" transform="rotate(-180 1 151)" fill="#F63A1A"/>
<circle cx="1" cy="111" r="1" transform="rotate(-180 1 111)" fill="#F63A1A"/>
<circle cx="201" cy="151" r="1" transform="rotate(-180 201 151)" fill="#F63A1A"/>
<circle cx="201" cy="111" r="1" transform="rotate(-180 201 111)" fill="#F63A1A"/>
<circle cx="41" cy="151" r="1" transform="rotate(-180 41 151)" fill="#F63A1A"/>
<circle cx="41" cy="111" r="1" transform="rotate(-180 41 111)" fill="#F63A1A"/>
<circle cx="121" cy="151" r="1" transform="rotate(-180 121 151)" fill="#F63A1A"/>
<circle cx="121" cy="111" r="1" transform="rotate(-180 121 111)" fill="#F63A1A"/>
<circle cx="271" cy="141" r="1" transform="rotate(-180 271 141)" fill="#F63A1A"/>
<circle cx="271" cy="101" r="1" transform="rotate(-180 271 101)" fill="#F63A1A"/>
<circle cx="111" cy="141" r="1" transform="rotate(-180 111 141)" fill="#F63A1A"/>
<circle cx="111" cy="101" r="1" transform="rotate(-180 111 101)" fill="#F63A1A"/>
<circle cx="191" cy="141" r="1" transform="rotate(-180 191 141)" fill="#F63A1A"/>
<circle cx="191" cy="101" r="1" transform="rotate(-180 191 101)" fill="#F63A1A"/>
<circle cx="31" cy="141" r="1" transform="rotate(-180 31 141)" fill="#F63A1A"/>
<circle cx="31" cy="101" r="1" transform="rotate(-180 31 101)" fill="#F63A1A"/>
<circle cx="231" cy="141" r="1" transform="rotate(-180 231 141)" fill="#F63A1A"/>
<circle cx="231" cy="101" r="1" transform="rotate(-180 231 101)" fill="#F63A1A"/>
<circle cx="71" cy="141" r="1" transform="rotate(-180 71 141)" fill="#F63A1A"/>
<circle cx="71" cy="101" r="1" transform="rotate(-180 71 101)" fill="#F63A1A"/>
<circle cx="151" cy="141" r="1" transform="rotate(-180 151 141)" fill="#F63A1A"/>
<circle cx="151" cy="101" r="1" transform="rotate(-180 151 101)" fill="#F63A1A"/>
<circle cx="251" cy="141" r="1" transform="rotate(-180 251 141)" fill="#F63A1A"/>
<circle cx="251" cy="101" r="1" transform="rotate(-180 251 101)" fill="#F63A1A"/>
<circle cx="91" cy="141" r="1" transform="rotate(-180 91 141)" fill="#F63A1A"/>
<circle cx="91" cy="101" r="1" transform="rotate(-180 91 101)" fill="#F63A1A"/>
<circle cx="171" cy="141" r="1" transform="rotate(-180 171 141)" fill="#F63A1A"/>
<circle cx="171" cy="101" r="1" transform="rotate(-180 171 101)" fill="#F63A1A"/>
<circle cx="11" cy="141" r="1" transform="rotate(-180 11 141)" fill="#F63A1A"/>
<circle cx="11" cy="101" r="1" transform="rotate(-180 11 101)" fill="#F63A1A"/>
<circle cx="211" cy="141" r="1" transform="rotate(-180 211 141)" fill="#F63A1A"/>
<circle cx="211" cy="101" r="1" transform="rotate(-180 211 101)" fill="#F63A1A"/>
<circle cx="51" cy="141" r="1" transform="rotate(-180 51 141)" fill="#F63A1A"/>
<circle cx="51" cy="101" r="1" transform="rotate(-180 51 101)" fill="#F63A1A"/>
<circle cx="131" cy="141" r="1" transform="rotate(-180 131 141)" fill="#F63A1A"/>
<circle cx="131" cy="101" r="1" transform="rotate(-180 131 101)" fill="#F63A1A"/>
<circle cx="261" cy="141" r="1" transform="rotate(-180 261 141)" fill="#F63A1A"/>
<circle cx="261" cy="101" r="1" transform="rotate(-180 261 101)" fill="#F63A1A"/>
<circle cx="101" cy="141" r="1" transform="rotate(-180 101 141)" fill="#F63A1A"/>
<circle cx="101" cy="101" r="1" transform="rotate(-180 101 101)" fill="#F63A1A"/>
<circle cx="181" cy="141" r="1" transform="rotate(-180 181 141)" fill="#F63A1A"/>
<circle cx="181" cy="101" r="1" transform="rotate(-180 181 101)" fill="#F63A1A"/>
<circle cx="21" cy="141" r="1" transform="rotate(-180 21 141)" fill="#F63A1A"/>
<circle cx="21" cy="101" r="1" transform="rotate(-180 21 101)" fill="#F63A1A"/>
<circle cx="221" cy="141" r="1" transform="rotate(-180 221 141)" fill="#F63A1A"/>
<circle cx="221" cy="101" r="1" transform="rotate(-180 221 101)" fill="#F63A1A"/>
<circle cx="61" cy="141" r="1" transform="rotate(-180 61 141)" fill="#F63A1A"/>
<circle cx="61" cy="101" r="1" transform="rotate(-180 61 101)" fill="#F63A1A"/>
<circle cx="141" cy="141" r="1" transform="rotate(-180 141 141)" fill="#F63A1A"/>
<circle cx="141" cy="101" r="1" transform="rotate(-180 141 101)" fill="#F63A1A"/>
<circle cx="241" cy="141" r="1" transform="rotate(-180 241 141)" fill="#F63A1A"/>
<circle cx="241" cy="101" r="1" transform="rotate(-180 241 101)" fill="#F63A1A"/>
<circle cx="81" cy="141" r="1" transform="rotate(-180 81 141)" fill="#F63A1A"/>
<circle cx="81" cy="101" r="1" transform="rotate(-180 81 101)" fill="#F63A1A"/>
<circle cx="161" cy="141" r="1" transform="rotate(-180 161 141)" fill="#F63A1A"/>
<circle cx="161" cy="101" r="1" transform="rotate(-180 161 101)" fill="#F63A1A"/>
<circle cx="1" cy="141" r="1" transform="rotate(-180 1 141)" fill="#F63A1A"/>
<circle cx="1" cy="101" r="1" transform="rotate(-180 1 101)" fill="#F63A1A"/>
<circle cx="201" cy="141" r="1" transform="rotate(-180 201 141)" fill="#F63A1A"/>
<circle cx="201" cy="101" r="1" transform="rotate(-180 201 101)" fill="#F63A1A"/>
<circle cx="41" cy="141" r="1" transform="rotate(-180 41 141)" fill="#F63A1A"/>
<circle cx="41" cy="101" r="1" transform="rotate(-180 41 101)" fill="#F63A1A"/>
<circle cx="121" cy="141" r="1" transform="rotate(-180 121 141)" fill="#F63A1A"/>
<circle cx="121" cy="101" r="1" transform="rotate(-180 121 101)" fill="#F63A1A"/>
<circle cx="271" cy="131" r="1" transform="rotate(-180 271 131)" fill="#F63A1A"/>
<circle cx="271" cy="91" r="1" transform="rotate(-180 271 91)" fill="#F63A1A"/>
<circle cx="111" cy="131" r="1" transform="rotate(-180 111 131)" fill="#F63A1A"/>
<circle cx="111" cy="91" r="1" transform="rotate(-180 111 91)" fill="#F63A1A"/>
<circle cx="191" cy="131" r="1" transform="rotate(-180 191 131)" fill="#F63A1A"/>
<circle cx="191" cy="91" r="1" transform="rotate(-180 191 91)" fill="#F63A1A"/>
<circle cx="31" cy="131" r="1" transform="rotate(-180 31 131)" fill="#F63A1A"/>
<circle cx="31" cy="91" r="1" transform="rotate(-180 31 91)" fill="#F63A1A"/>
<circle cx="231" cy="131" r="1" transform="rotate(-180 231 131)" fill="#F63A1A"/>
<circle cx="231" cy="91" r="1" transform="rotate(-180 231 91)" fill="#F63A1A"/>
<circle cx="71" cy="131" r="1" transform="rotate(-180 71 131)" fill="#F63A1A"/>
<circle cx="71" cy="91" r="1" transform="rotate(-180 71 91)" fill="#F63A1A"/>
<circle cx="151" cy="131" r="1" transform="rotate(-180 151 131)" fill="#F63A1A"/>
<circle cx="151" cy="91" r="1" transform="rotate(-180 151 91)" fill="#F63A1A"/>
<circle cx="251" cy="131" r="1" transform="rotate(-180 251 131)" fill="#F63A1A"/>
<circle cx="251" cy="91" r="1" transform="rotate(-180 251 91)" fill="#F63A1A"/>
<circle cx="91" cy="131" r="1" transform="rotate(-180 91 131)" fill="#F63A1A"/>
<circle cx="91" cy="91" r="1" transform="rotate(-180 91 91)" fill="#F63A1A"/>
<circle cx="171" cy="131" r="1" transform="rotate(-180 171 131)" fill="#F63A1A"/>
<circle cx="171" cy="91" r="1" transform="rotate(-180 171 91)" fill="#F63A1A"/>
<circle cx="11" cy="131" r="1" transform="rotate(-180 11 131)" fill="#F63A1A"/>
<circle cx="11" cy="91" r="1" transform="rotate(-180 11 91)" fill="#F63A1A"/>
<circle cx="211" cy="131" r="1" transform="rotate(-180 211 131)" fill="#F63A1A"/>
<circle cx="211" cy="91" r="1" transform="rotate(-180 211 91)" fill="#F63A1A"/>
<circle cx="51" cy="131" r="1" transform="rotate(-180 51 131)" fill="#F63A1A"/>
<circle cx="51" cy="91" r="1" transform="rotate(-180 51 91)" fill="#F63A1A"/>
<circle cx="131" cy="131" r="1" transform="rotate(-180 131 131)" fill="#F63A1A"/>
<circle cx="131" cy="91" r="1" transform="rotate(-180 131 91)" fill="#F63A1A"/>
<circle cx="261" cy="131" r="1" transform="rotate(-180 261 131)" fill="#F63A1A"/>
<circle cx="261" cy="91" r="1" transform="rotate(-180 261 91)" fill="#F63A1A"/>
<circle cx="101" cy="131" r="1" transform="rotate(-180 101 131)" fill="#F63A1A"/>
<circle cx="101" cy="91" r="1" transform="rotate(-180 101 91)" fill="#F63A1A"/>
<circle cx="181" cy="131" r="1" transform="rotate(-180 181 131)" fill="#F63A1A"/>
<circle cx="181" cy="91" r="1" transform="rotate(-180 181 91)" fill="#F63A1A"/>
<circle cx="21" cy="131" r="1" transform="rotate(-180 21 131)" fill="#F63A1A"/>
<circle cx="21" cy="91" r="1" transform="rotate(-180 21 91)" fill="#F63A1A"/>
<circle cx="221" cy="131" r="1" transform="rotate(-180 221 131)" fill="#F63A1A"/>
<circle cx="221" cy="91" r="1" transform="rotate(-180 221 91)" fill="#F63A1A"/>
<circle cx="61" cy="131" r="1" transform="rotate(-180 61 131)" fill="#F63A1A"/>
<circle cx="61" cy="91" r="1" transform="rotate(-180 61 91)" fill="#F63A1A"/>
<circle cx="141" cy="131" r="1" transform="rotate(-180 141 131)" fill="#F63A1A"/>
<circle cx="141" cy="91" r="1" transform="rotate(-180 141 91)" fill="#F63A1A"/>
<circle cx="241" cy="131" r="1" transform="rotate(-180 241 131)" fill="#F63A1A"/>
<circle cx="241" cy="91" r="1" transform="rotate(-180 241 91)" fill="#F63A1A"/>
<circle cx="81" cy="131" r="1" transform="rotate(-180 81 131)" fill="#F63A1A"/>
<circle cx="81" cy="91" r="1" transform="rotate(-180 81 91)" fill="#F63A1A"/>
<circle cx="161" cy="131" r="1" transform="rotate(-180 161 131)" fill="#F63A1A"/>
<circle cx="161" cy="91" r="1" transform="rotate(-180 161 91)" fill="#F63A1A"/>
<circle cx="1" cy="131" r="1" transform="rotate(-180 1 131)" fill="#F63A1A"/>
<circle cx="1" cy="91" r="1" transform="rotate(-180 1 91)" fill="#F63A1A"/>
<circle cx="201" cy="131" r="1" transform="rotate(-180 201 131)" fill="#F63A1A"/>
<circle cx="201" cy="91" r="1" transform="rotate(-180 201 91)" fill="#F63A1A"/>
<circle cx="41" cy="131" r="1" transform="rotate(-180 41 131)" fill="#F63A1A"/>
<circle cx="41" cy="91" r="1" transform="rotate(-180 41 91)" fill="#F63A1A"/>
<circle cx="121" cy="131" r="1" transform="rotate(-180 121 131)" fill="#F63A1A"/>
<circle cx="121" cy="91" r="1" transform="rotate(-180 121 91)" fill="#F63A1A"/>
<circle cx="271" cy="121" r="1" transform="rotate(-180 271 121)" fill="#F63A1A"/>
<circle cx="271" cy="81" r="1" transform="rotate(-180 271 81)" fill="#F63A1A"/>
<circle cx="111" cy="121" r="1" transform="rotate(-180 111 121)" fill="#F63A1A"/>
<circle cx="111" cy="81" r="1" transform="rotate(-180 111 81)" fill="#F63A1A"/>
<circle cx="191" cy="121" r="1" transform="rotate(-180 191 121)" fill="#F63A1A"/>
<circle cx="191" cy="81" r="1" transform="rotate(-180 191 81)" fill="#F63A1A"/>
<circle cx="31" cy="121" r="1" transform="rotate(-180 31 121)" fill="#F63A1A"/>
<circle cx="31" cy="81" r="1" transform="rotate(-180 31 81)" fill="#F63A1A"/>
<circle cx="231" cy="121" r="1" transform="rotate(-180 231 121)" fill="#F63A1A"/>
<circle cx="231" cy="81" r="1" transform="rotate(-180 231 81)" fill="#F63A1A"/>
<circle cx="71" cy="121" r="1" transform="rotate(-180 71 121)" fill="#F63A1A"/>
<circle cx="71" cy="81" r="1" transform="rotate(-180 71 81)" fill="#F63A1A"/>
<circle cx="151" cy="121" r="1" transform="rotate(-180 151 121)" fill="#F63A1A"/>
<circle cx="151" cy="81" r="1" transform="rotate(-180 151 81)" fill="#F63A1A"/>
<circle cx="251" cy="121" r="1" transform="rotate(-180 251 121)" fill="#F63A1A"/>
<circle cx="251" cy="81" r="1" transform="rotate(-180 251 81)" fill="#F63A1A"/>
<circle cx="91" cy="121" r="1" transform="rotate(-180 91 121)" fill="#F63A1A"/>
<circle cx="91" cy="81" r="1" transform="rotate(-180 91 81)" fill="#F63A1A"/>
<circle cx="171" cy="121" r="1" transform="rotate(-180 171 121)" fill="#F63A1A"/>
<circle cx="171" cy="81" r="1" transform="rotate(-180 171 81)" fill="#F63A1A"/>
<circle cx="11" cy="121" r="1" transform="rotate(-180 11 121)" fill="#F63A1A"/>
<circle cx="11" cy="81" r="1" transform="rotate(-180 11 81)" fill="#F63A1A"/>
<circle cx="211" cy="121" r="1" transform="rotate(-180 211 121)" fill="#F63A1A"/>
<circle cx="211" cy="81" r="1" transform="rotate(-180 211 81)" fill="#F63A1A"/>
<circle cx="51" cy="121" r="1" transform="rotate(-180 51 121)" fill="#F63A1A"/>
<circle cx="51" cy="81" r="1" transform="rotate(-180 51 81)" fill="#F63A1A"/>
<circle cx="131" cy="121" r="1" transform="rotate(-180 131 121)" fill="#F63A1A"/>
<circle cx="131" cy="81" r="1" transform="rotate(-180 131 81)" fill="#F63A1A"/>
<circle cx="261" cy="121" r="1" transform="rotate(-180 261 121)" fill="#F63A1A"/>
<circle cx="261" cy="81" r="1" transform="rotate(-180 261 81)" fill="#F63A1A"/>
<circle cx="101" cy="121" r="1" transform="rotate(-180 101 121)" fill="#F63A1A"/>
<circle cx="101" cy="81" r="1" transform="rotate(-180 101 81)" fill="#F63A1A"/>
<circle cx="181" cy="121" r="1" transform="rotate(-180 181 121)" fill="#F63A1A"/>
<circle cx="181" cy="81" r="1" transform="rotate(-180 181 81)" fill="#F63A1A"/>
<circle cx="21" cy="121" r="1" transform="rotate(-180 21 121)" fill="#F63A1A"/>
<circle cx="21" cy="81" r="1" transform="rotate(-180 21 81)" fill="#F63A1A"/>
<circle cx="221" cy="121" r="1" transform="rotate(-180 221 121)" fill="#F63A1A"/>
<circle cx="221" cy="81" r="1" transform="rotate(-180 221 81)" fill="#F63A1A"/>
<circle cx="61" cy="121" r="1" transform="rotate(-180 61 121)" fill="#F63A1A"/>
<circle cx="61" cy="81" r="1" transform="rotate(-180 61 81)" fill="#F63A1A"/>
<circle cx="141" cy="121" r="1" transform="rotate(-180 141 121)" fill="#F63A1A"/>
<circle cx="141" cy="81" r="1" transform="rotate(-180 141 81)" fill="#F63A1A"/>
<circle cx="241" cy="121" r="1" transform="rotate(-180 241 121)" fill="#F63A1A"/>
<circle cx="241" cy="81" r="1" transform="rotate(-180 241 81)" fill="#F63A1A"/>
<circle cx="81" cy="121" r="1" transform="rotate(-180 81 121)" fill="#F63A1A"/>
<circle cx="81" cy="81" r="1" transform="rotate(-180 81 81)" fill="#F63A1A"/>
<circle cx="161" cy="121" r="1" transform="rotate(-180 161 121)" fill="#F63A1A"/>
<circle cx="161" cy="81" r="1" transform="rotate(-180 161 81)" fill="#F63A1A"/>
<circle cx="1" cy="121" r="1" transform="rotate(-180 1 121)" fill="#F63A1A"/>
<circle cx="1" cy="81" r="1" transform="rotate(-180 1 81)" fill="#F63A1A"/>
<circle cx="201" cy="121" r="1" transform="rotate(-180 201 121)" fill="#F63A1A"/>
<circle cx="201" cy="81" r="1" transform="rotate(-180 201 81)" fill="#F63A1A"/>
<circle cx="41" cy="121" r="1" transform="rotate(-180 41 121)" fill="#F63A1A"/>
<circle cx="41" cy="81" r="1" transform="rotate(-180 41 81)" fill="#F63A1A"/>
<circle cx="121" cy="121" r="1" transform="rotate(-180 121 121)" fill="#F63A1A"/>
<circle cx="121" cy="81" r="1" transform="rotate(-180 121 81)" fill="#F63A1A"/>
</g>
</svg>
