<svg width="1272" height="617" viewBox="0 0 1272 617" fill="none" xmlns="http://www.w3.org/2000/svg">
<g filter="url(#filter0_bd_82:8894)">
<path d="M60 72C60 63.1635 67.1634 56 76 56H1196C1204.84 56 1212 63.1634 1212 72V537C1212 545.837 1204.84 553 1196 553H76C67.1635 553 60 545.837 60 537V72Z" fill="white" fill-opacity="0.1" shape-rendering="crispEdges"/>
<path d="M60.5 72C60.5 63.4396 67.4396 56.5 76 56.5H1196C1204.56 56.5 1211.5 63.4396 1211.5 72V537C1211.5 545.56 1204.56 552.5 1196 552.5H76C67.4396 552.5 60.5 545.56 60.5 537V72Z" stroke="white" shape-rendering="crispEdges"/>
</g>
<defs>
<filter id="filter0_bd_82:8894" x="0" y="0" width="1272" height="617" filterUnits="userSpaceOnUse" color-interpolation-filters="sRGB">
<feFlood flood-opacity="0" result="BackgroundImageFix"/>
<feGaussianBlur in="BackgroundImage" stdDeviation="28"/>
<feComposite in2="SourceAlpha" operator="in" result="effect1_backgroundBlur_82:8894"/>
<feColorMatrix in="SourceAlpha" type="matrix" values="0 0 0 0 0 0 0 0 0 0 0 0 0 0 0 0 0 0 127 0" result="hardAlpha"/>
<feOffset dy="4"/>
<feGaussianBlur stdDeviation="30"/>
<feComposite in2="hardAlpha" operator="out"/>
<feColorMatrix type="matrix" values="0 0 0 0 0.701961 0 0 0 0 0.647059 0 0 0 0 0.819608 0 0 0 0.31 0"/>
<feBlend mode="normal" in2="effect1_backgroundBlur_82:8894" result="effect2_dropShadow_82:8894"/>
<feBlend mode="normal" in="SourceGraphic" in2="effect2_dropShadow_82:8894" result="shape"/>
</filter>
</defs>
</svg>
